<svg xmlns="http://www.w3.org/2000/svg" width="1300" height="420" viewBox="0 0 1300 420">
<rect x="0" y="0" width="100%" height="100%" fill="white" />
<style>text{font-family:Arial,sans-serif;fill:#1f2937} .axis{stroke:#9ca3af;stroke-width:1} .grid{stroke:#e5e7eb;stroke-width:1}</style>
<text x="20" y="22" font-size="14" font-weight="600">TAT Training Curves</text>
<rect x="50.00" y="35.00" width="394.00" height="345.00" fill="none" class="axis" />
<line x1="50.00" y1="121.25" x2="444.00" y2="121.25" class="grid" />
<line x1="50.00" y1="207.50" x2="444.00" y2="207.50" class="grid" />
<line x1="50.00" y1="293.75" x2="444.00" y2="293.75" class="grid" />
<text x="50.00" y="27.00" font-size="12" font-weight="600">Total Loss</text>
<text x="50.00" y="396.00" font-size="10">y[0.4640, 0.4839]</text>
<line x1="58.0" y1="49" x2="74.0" y2="49" stroke="#2563eb" stroke-width="2" />
<text x="78.0" y="52" font-size="10">train</text>
<line x1="118.0" y1="49" x2="134.0" y2="49" stroke="#dc2626" stroke-width="2" />
<text x="138.0" y="52" font-size="10">val</text>
<rect x="468.00" y="35.00" width="394.00" height="345.00" fill="none" class="axis" />
<line x1="468.00" y1="121.25" x2="862.00" y2="121.25" class="grid" />
<line x1="468.00" y1="207.50" x2="862.00" y2="207.50" class="grid" />
<line x1="468.00" y1="293.75" x2="862.00" y2="293.75" class="grid" />
<text x="468.00" y="27.00" font-size="12" font-weight="600">Reconstruction Loss</text>
<text x="468.00" y="396.00" font-size="10">y[0.4640, 0.4839]</text>
<line x1="476.0" y1="49" x2="492.0" y2="49" stroke="#2563eb" stroke-width="2" />
<text x="496.0" y="52" font-size="10">train</text>
<line x1="536.0" y1="49" x2="552.0" y2="49" stroke="#dc2626" stroke-width="2" />
<text x="556.0" y="52" font-size="10">val</text>
<rect x="886.00" y="35.00" width="394.00" height="345.00" fill="none" class="axis" />
<line x1="886.00" y1="121.25" x2="1280.00" y2="121.25" class="grid" />
<line x1="886.00" y1="207.50" x2="1280.00" y2="207.50" class="grid" />
<line x1="886.00" y1="293.75" x2="1280.00" y2="293.75" class="grid" />
<text x="886.00" y="27.00" font-size="12" font-weight="600">Contrastive Loss</text>
<text x="886.00" y="396.00" font-size="10">y[0.0000, 0.0117]</text>
<line x1="894.0" y1="49" x2="910.0" y2="49" stroke="#2563eb" stroke-width="2" />
<text x="914.0" y="52" font-size="10">train</text>
<line x1="954.0" y1="49" x2="970.0" y2="49" stroke="#dc2626" stroke-width="2" />
<text x="974.0" y="52" font-size="10">val</text>
</svg>