<svg xmlns="http://www.w3.org/2000/svg" width="1300" height="420" viewBox="0 0 1300 420">
<rect x="0" y="0" width="100%" height="100%" fill="white" />
<style>text{font-family:Arial,sans-serif;fill:#1f2937} .axis{stroke:#9ca3af;stroke-width:1} .grid{stroke:#e5e7eb;stroke-width:1}</style>
<text x="20" y="22" font-size="14" font-weight="600">TAT Training Curves</text>
<rect x="50.00" y="35.00" width="394.00" height="345.00" fill="none" class="axis" />
<line x1="50.00" y1="121.25" x2="444.00" y2="121.25" class="grid" />
<line x1="50.00" y1="207.50" x2="444.00" y2="207.50" class="grid" />
<line x1="50.00" y1="293.75" x2="444.00" y2="293.75" class="grid" />
<text x="50.00" y="27.00" font-size="12" font-weight="600">Total Loss</text>
<text x="50.00" y="396.00" font-size="10">y[0.0889, 0.2062]</text>
<polyline fill="none" stroke="#2563eb" stroke-width="2" points="50.00,35.00 60.10,281.27 70.21,293.74 80.31,312.79 90.41,321.91 100.51,328.87 110.62,333.28 120.72,336.21 130.82,340.17 140.92,344.12 151.03,346.37 161.13,349.43 171.23,351.38 181.33,353.46 191.44,354.36 201.54,357.21 211.64,358.67 221.74,360.86 231.85,362.23 241.95,364.27 252.05,365.77 262.15,366.94 272.26,369.09 282.36,369.97 292.46,370.98 302.56,372.35 312.67,373.95 322.77,375.41 332.87,376.08 342.97,377.09 353.08,377.17 363.18,378.78 373.28,378.91 383.38,379.14 393.49,379.01 403.59,379.72 413.69,380.00 423.79,379.31 433.90,379.89 444.00,379.97" />
<polyline fill="none" stroke="#dc2626" stroke-width="2" points="50.00,35.00 60.10,189.41 70.21,166.12 80.31,200.10 90.41,237.49 100.51,262.51 110.62,280.63 120.72,302.17 130.82,304.67 140.92,325.70 151.03,332.86 161.13,337.89 171.23,347.85 181.33,355.82 191.44,365.78 201.54,355.83 211.64,371.72 221.74,365.32 231.85,372.27 241.95,366.99 252.05,375.30 262.15,370.76 272.26,365.50 282.36,356.94 292.46,370.41 302.56,366.96 312.67,373.10 322.77,366.55 332.87,374.30 342.97,363.89 353.08,368.98 363.18,372.33 373.28,359.93 383.38,380.00 393.49,373.72 403.59,365.87 413.69,372.18 423.79,379.94 433.90,378.33 444.00,372.16" />
<line x1="58.0" y1="49" x2="74.0" y2="49" stroke="#2563eb" stroke-width="2" />
<text x="78.0" y="52" font-size="10">train</text>
<line x1="118.0" y1="49" x2="134.0" y2="49" stroke="#dc2626" stroke-width="2" />
<text x="138.0" y="52" font-size="10">val</text>
<rect x="468.00" y="35.00" width="394.00" height="345.00" fill="none" class="axis" />
<line x1="468.00" y1="121.25" x2="862.00" y2="121.25" class="grid" />
<line x1="468.00" y1="207.50" x2="862.00" y2="207.50" class="grid" />
<line x1="468.00" y1="293.75" x2="862.00" y2="293.75" class="grid" />
<text x="468.00" y="27.00" font-size="12" font-weight="600">Reconstruction Loss</text>
<text x="468.00" y="396.00" font-size="10">y[0.0879, 0.2062]</text>
<polyline fill="none" stroke="#2563eb" stroke-width="2" points="468.00,35.00 478.10,279.05 488.21,305.56 498.31,318.71 508.41,325.70 518.51,331.96 528.62,335.75 538.72,338.18 548.82,341.72 558.92,345.45 569.03,347.69 579.13,350.53 589.23,352.37 599.33,354.38 609.44,355.52 619.54,357.92 629.64,359.36 639.74,361.50 649.85,362.47 659.95,364.66 670.05,366.12 680.15,367.46 690.26,369.49 700.36,370.19 710.46,371.29 720.56,372.52 730.67,373.82 740.77,375.35 750.87,376.04 760.97,377.17 771.08,377.30 781.18,378.72 791.28,378.83 801.38,379.14 811.49,379.04 821.59,379.68 831.69,380.00 841.79,379.54 851.90,379.73 862.00,379.91" />
<polyline fill="none" stroke="#dc2626" stroke-width="2" points="468.00,35.00 478.10,176.94 488.21,230.42 498.31,265.57 508.41,280.35 518.51,297.80 528.62,307.74 538.72,323.85 548.82,321.26 558.92,340.85 569.03,346.78 579.13,351.30 589.23,358.92 599.33,365.72 609.44,373.58 619.54,364.48 629.64,377.21 639.74,370.62 649.85,376.00 659.95,372.53 670.05,379.34 680.15,374.67 690.26,369.31 700.36,360.82 710.46,372.75 720.56,369.23 730.67,376.31 740.77,368.52 750.87,375.94 760.97,366.51 771.08,370.67 781.18,373.26 791.28,362.34 801.38,379.56 811.49,374.78 821.59,367.72 831.69,374.59 841.79,380.00 851.90,378.96 862.00,373.45" />
<line x1="476.0" y1="49" x2="492.0" y2="49" stroke="#2563eb" stroke-width="2" />
<text x="496.0" y="52" font-size="10">train</text>
<line x1="536.0" y1="49" x2="552.0" y2="49" stroke="#dc2626" stroke-width="2" />
<text x="556.0" y="52" font-size="10">val</text>
<rect x="886.00" y="35.00" width="394.00" height="345.00" fill="none" class="axis" />
<line x1="886.00" y1="121.25" x2="1280.00" y2="121.25" class="grid" />
<line x1="886.00" y1="207.50" x2="1280.00" y2="207.50" class="grid" />
<line x1="886.00" y1="293.75" x2="1280.00" y2="293.75" class="grid" />
<text x="886.00" y="27.00" font-size="12" font-weight="600">Contrastive Loss</text>
<text x="886.00" y="396.00" font-size="10">y[0.0101, 2.7949]</text>
<polyline fill="none" stroke="#2563eb" stroke-width="2" points="886.00,58.20 896.10,35.00 906.21,365.51 916.31,376.87 926.41,378.03 936.51,378.39 946.62,378.73 956.72,379.00 966.82,379.22 976.92,379.33 987.03,379.32 997.13,379.43 1007.23,379.48 1017.33,379.50 1027.44,379.36 1037.54,379.61 1047.64,379.62 1057.74,379.63 1067.85,379.85 1077.95,379.76 1088.05,379.77 1098.15,379.67 1108.26,379.73 1118.36,379.83 1128.46,379.77 1138.56,379.84 1148.67,380.00 1158.77,379.95 1168.87,379.94 1178.97,379.87 1189.08,379.84 1199.18,379.94 1209.28,379.95 1219.38,379.91 1229.49,379.88 1239.59,379.92 1249.69,379.90 1259.79,379.77 1269.90,379.99 1280.00,379.93" />
<polyline fill="none" stroke="#dc2626" stroke-width="2" points="886.00,35.00 896.10,57.90 906.21,363.47 916.31,373.06 926.41,375.70 936.51,376.45 946.62,377.36 956.72,377.86 966.82,378.52 976.92,378.48 987.03,378.57 997.13,378.59 1007.23,378.80 1017.33,378.87 1027.44,379.04 1037.54,379.04 1047.64,379.29 1057.74,379.38 1067.85,379.52 1077.95,379.33 1088.05,379.45 1098.15,379.51 1108.26,379.58 1118.36,379.67 1128.46,379.73 1138.56,379.78 1148.67,379.58 1158.77,379.82 1168.87,379.78 1178.97,379.76 1189.08,379.83 1199.18,379.90 1209.28,379.83 1219.38,380.00 1229.49,379.87 1239.59,379.85 1249.69,379.70 1259.79,379.93 1269.90,379.87 1280.00,379.85" />
<line x1="894.0" y1="49" x2="910.0" y2="49" stroke="#2563eb" stroke-width="2" />
<text x="914.0" y="52" font-size="10">train</text>
<line x1="954.0" y1="49" x2="970.0" y2="49" stroke="#dc2626" stroke-width="2" />
<text x="974.0" y="52" font-size="10">val</text>
</svg>